#N canvas 128 128 1920 976 12;
#X msg 1068 174 npeak \$1;
#X obj 792 580 lop~;
#X obj 902 495 *~;
#X obj 101 242 abs~;
#X obj 105 303 clip~ 0 1;
#X obj 104 273 *~ 10000;
#X obj 108 344 snapshot~;
#X obj 30 276 loadbang;
#X obj 103 438 line~;
#X obj 28 306 metro 1;
#X obj 102 408 pack 0 10;
#X obj 1071 145 r p1;
#X obj 178 377 r p3;
#X obj 875 539 r p5;
#X msg 1149 173 maxfreq \$1;
#X obj 1152 144 r p6;
#X obj 286 267 route 0;
#X obj 342 267 route 1;
#X obj 397 266 route 2;
#X obj 453 268 route 3;
#X obj 508 269 route 4;
#X obj 564 269 route 5;
#X obj 619 268 route 6;
#X obj 675 270 route 7;
#X obj 730 269 route 8;
#X obj 786 269 route 9;
#X obj 841 268 route 10;
#X obj 904 270 route 11;
#X obj 966 270 route 12;
#X obj 1028 270 route 13;
#X obj 1090 269 route 14;
#X obj 1154 270 route 15;
#X obj 1216 268 route 16;
#X obj 1279 270 route 17;
#X obj 1341 270 route 18;
#X obj 1403 270 route 19;
#X obj 284 365 part 0;
#X obj 340 365 part 1;
#X obj 394 366 part 2;
#X obj 451 367 part 3;
#X obj 505 368 part 4;
#X obj 562 367 part 5;
#X obj 615 368 part 6;
#X obj 671 369 part 7;
#X obj 727 367 part 8;
#X obj 784 366 part 9;
#X obj 837 368 part 10;
#X obj 900 369 part 11;
#X obj 963 369 part 12;
#X obj 1026 368 part 13;
#X obj 1086 369 part 14;
#X obj 1150 368 part 15;
#X obj 1212 368 part 16;
#X obj 1275 369 part 17;
#X obj 1338 369 part 18;
#X obj 1401 368 part 19;
#X msg 320 328 0;
#X msg 376 326 1;
#X msg 432 328 2;
#X msg 484 329 3;
#X msg 540 327 4;
#X msg 597 325 5;
#X msg 653 326 6;
#X msg 704 328 7;
#X msg 760 329 8;
#X msg 815 327 9;
#X msg 871 329 10;
#X msg 946 329 11;
#X msg 1002 327 12;
#X msg 1059 325 13;
#X msg 1115 326 14;
#X msg 1166 328 15;
#X msg 1265 328 16;
#X msg 1321 326 17;
#X msg 1377 330 18;
#X msg 1429 329 19;
#X obj 909 143 loadbang;
#X obj 895 234 sigmund~ -npeak 20 peaks;
#X obj 788 655 outlet~;
#X obj 462 89 inlet~;
#X text 25 178 cuts to silence if the input is 0 for long enough,
f 21;
#X connect 0 0 77 0;
#X connect 1 0 78 0;
#X connect 2 0 1 0;
#X connect 3 0 5 0;
#X connect 4 0 6 0;
#X connect 5 0 4 0;
#X connect 6 0 10 0;
#X connect 7 0 9 0;
#X connect 8 0 2 1;
#X connect 9 0 6 0;
#X connect 10 0 8 0;
#X connect 11 0 0 0;
#X connect 12 0 10 1;
#X connect 13 0 1 1;
#X connect 14 0 77 0;
#X connect 15 0 14 0;
#X connect 16 0 36 0;
#X connect 17 0 37 0;
#X connect 18 0 38 0;
#X connect 19 0 39 0;
#X connect 20 0 40 0;
#X connect 21 0 41 0;
#X connect 22 0 42 0;
#X connect 23 0 43 0;
#X connect 24 0 44 0;
#X connect 25 0 45 0;
#X connect 26 0 46 0;
#X connect 27 0 47 0;
#X connect 28 0 48 0;
#X connect 29 0 49 0;
#X connect 30 0 50 0;
#X connect 31 0 51 0;
#X connect 32 0 52 0;
#X connect 33 0 53 0;
#X connect 34 0 54 0;
#X connect 35 0 55 0;
#X connect 36 0 2 0;
#X connect 37 0 2 0;
#X connect 38 0 2 0;
#X connect 39 0 2 0;
#X connect 40 0 2 0;
#X connect 41 0 2 0;
#X connect 42 0 2 0;
#X connect 43 0 2 0;
#X connect 44 0 2 0;
#X connect 45 0 2 0;
#X connect 46 0 2 0;
#X connect 47 0 2 0;
#X connect 48 0 2 0;
#X connect 49 0 2 0;
#X connect 50 0 2 0;
#X connect 51 0 2 0;
#X connect 52 0 2 0;
#X connect 53 0 2 0;
#X connect 54 0 2 0;
#X connect 55 0 2 0;
#X connect 56 0 36 1;
#X connect 57 0 37 1;
#X connect 58 0 38 1;
#X connect 59 0 39 1;
#X connect 60 0 40 1;
#X connect 61 0 41 1;
#X connect 62 0 42 1;
#X connect 63 0 43 1;
#X connect 64 0 44 1;
#X connect 65 0 45 1;
#X connect 66 0 46 1;
#X connect 67 0 47 1;
#X connect 68 0 48 1;
#X connect 69 0 49 1;
#X connect 70 0 50 1;
#X connect 71 0 51 1;
#X connect 72 0 52 1;
#X connect 73 0 53 1;
#X connect 74 0 54 1;
#X connect 75 0 55 1;
#X connect 76 0 56 0;
#X connect 76 0 57 0;
#X connect 76 0 58 0;
#X connect 76 0 59 0;
#X connect 76 0 60 0;
#X connect 76 0 61 0;
#X connect 76 0 62 0;
#X connect 76 0 63 0;
#X connect 76 0 64 0;
#X connect 76 0 65 0;
#X connect 76 0 66 0;
#X connect 76 0 67 0;
#X connect 76 0 68 0;
#X connect 76 0 69 0;
#X connect 76 0 70 0;
#X connect 76 0 71 0;
#X connect 76 0 72 0;
#X connect 76 0 73 0;
#X connect 76 0 74 0;
#X connect 76 0 75 0;
#X connect 77 0 16 0;
#X connect 77 0 17 0;
#X connect 77 0 18 0;
#X connect 77 0 19 0;
#X connect 77 0 20 0;
#X connect 77 0 21 0;
#X connect 77 0 22 0;
#X connect 77 0 23 0;
#X connect 77 0 24 0;
#X connect 77 0 25 0;
#X connect 77 0 26 0;
#X connect 77 0 27 0;
#X connect 77 0 28 0;
#X connect 77 0 29 0;
#X connect 77 0 30 0;
#X connect 77 0 31 0;
#X connect 77 0 32 0;
#X connect 77 0 33 0;
#X connect 77 0 34 0;
#X connect 77 0 35 0;
#X connect 79 0 3 0;
#X connect 79 0 77 0;
