#N canvas 58 26 1920 976 12;
#X obj 195 320 adc~ 1 2;
#X obj 211 705 dac~ 1 2;
#X obj 13 43 hsl 200 15 0 256 0 0 empty empty waveform -2 -8 0 10 #fcfcfc
#000000 #000000 0 1;
#X obj 420 12 param.change;
#X obj 417 139 param.set 2;
#X obj 13 77 hsl 242 15 1 20 0 0 empty empty partials -2 -8 0 10 #fcfcfc
#000000 #000000 0 1;
#X obj 416 101 param.set 1;
#X obj 13 142 hsl 128 15 1 100 0 0 empty empty amp\\\ time -2 -8 0
10 #fcfcfc #000000 #000000 0 1;
#X obj 13 175 hsl 128 15 0 100 0 0 empty empty freq\\\ time -2 -8 0
10 #fcfcfc #000000 #000000 0 1;
#X obj 419 173 param.set 3;
#X obj 425 213 param.set 4;
#X obj 587 24 loadbang;
#X msg 592 111 0;
#X msg 585 190 10;
#X msg 585 154 20;
#X obj 156 142 hsl 99 15 200 21000 1 0 empty empty filter -2 -8 0 10
#fcfcfc #000000 #000000 0 1;
#X obj 425 239 param.set 5;
#X obj 777 52 param.get 1;
#X obj 868 51 s p1;
#X obj 775 78 param.get 2;
#X obj 867 82 s p2;
#X obj 775 113 param.get 3;
#X obj 866 117 s p3;
#X obj 13 110 hsl 242 15 200 21000 1 0 empty empty max\\\ analysis
-2 -8 0 10 #fcfcfc #000000 #000000 0 1;
#X msg 584 227 21000;
#X msg 588 260 21000;
#X obj 430 268 param.set 6;
#X obj 778 149 param.get 4;
#X obj 868 154 s p4;
#X obj 870 181 s p5;
#X obj 775 181 param.get 5;
#X obj 774 213 param.get 6;
#X obj 869 213 s p6;
#X obj 407 73 div;
#X obj 65 348 channel~;
#X obj 130 349 channel~;
#X msg 589 60 20;
#X obj 13 208 hsl 242 15 0 100 0 0 empty empty mix -2 -8 0 10 #fcfcfc
#000000 #000000 0 1;
#X obj 427 301 param.set 7;
#X obj 772 244 param.get 7;
#X obj 867 244 s p7;
#X obj 144 646 *~;
#X obj 218 648 *~;
#X obj 356 502 r p7;
#X obj 309 644 *~;
#X obj 377 651 *~;
#X msg 589 288 100;
#X obj 348 537 / 100;
#X obj 443 573 - 1;
#X obj 407 607 * -1;
#X floatatom 225 44 6 -24 24 2 pitch - - 8;
#X obj 429 331 param.set 8;
#X obj 770 275 param.get 8;
#X obj 866 278 s p8;
#X obj 156 175 hsl 99 15 0 100 0 0 empty empty stereo -2 -8 0 10 #fcfcfc
#000000 #000000 0 1;
#X obj 429 359 param.set 9;
#X obj 772 307 param.get 9;
#X obj 868 310 s p9;
#X obj 206 459 - 1;
#X obj 216 490 * -1;
#X obj 300 350 r p9;
#X obj 107 564 *~;
#X obj 178 566 *~;
#X obj 69 571 *~;
#X obj 143 560 *~;
#X obj 177 389 / 200;
#X obj 229 369 + 100;
#X msg 587 361 80;
#X msg 587 315 0;
#X connect 0 0 44 0;
#X connect 0 0 34 0;
#X connect 0 1 45 0;
#X connect 0 1 35 0;
#X connect 2 0 4 0;
#X connect 5 0 33 0;
#X connect 7 0 9 0;
#X connect 8 0 10 0;
#X connect 11 0 36 0;
#X connect 11 0 12 0;
#X connect 11 0 14 0;
#X connect 11 0 13 0;
#X connect 11 0 24 0;
#X connect 11 0 25 0;
#X connect 11 0 46 0;
#X connect 11 0 68 0;
#X connect 11 0 67 0;
#X connect 12 0 2 0;
#X connect 13 0 8 0;
#X connect 14 0 7 0;
#X connect 15 0 16 0;
#X connect 17 0 18 0;
#X connect 19 0 20 0;
#X connect 21 0 22 0;
#X connect 23 0 26 0;
#X connect 24 0 15 0;
#X connect 25 0 23 0;
#X connect 27 0 28 0;
#X connect 30 0 29 0;
#X connect 31 0 32 0;
#X connect 33 0 6 0;
#X connect 34 0 61 0;
#X connect 34 0 63 0;
#X connect 35 0 62 0;
#X connect 35 0 64 0;
#X connect 36 0 5 0;
#X connect 37 0 38 0;
#X connect 39 0 40 0;
#X connect 41 0 1 0;
#X connect 42 0 1 1;
#X connect 43 0 47 0;
#X connect 44 0 1 0;
#X connect 45 0 1 1;
#X connect 46 0 37 0;
#X connect 47 0 41 1;
#X connect 47 0 42 1;
#X connect 47 0 48 0;
#X connect 48 0 49 0;
#X connect 49 0 44 1;
#X connect 49 0 45 1;
#X connect 50 0 51 0;
#X connect 52 0 53 0;
#X connect 54 0 55 0;
#X connect 56 0 57 0;
#X connect 58 0 59 0;
#X connect 59 0 61 1;
#X connect 59 0 62 1;
#X connect 60 0 66 0;
#X connect 61 0 42 0;
#X connect 62 0 41 0;
#X connect 63 0 41 0;
#X connect 64 0 42 0;
#X connect 65 0 58 0;
#X connect 65 0 63 1;
#X connect 65 0 64 1;
#X connect 66 0 65 0;
#X connect 67 0 54 0;
#X connect 68 0 50 0;
#X coords 0 -1 1 1 267 235 1 0 0;
