#N canvas 820 224 756 586 12;
#X obj 87 21 inlet;
#X obj 91 53 unpack f f f f;
#X obj 90 293 pack 0 10;
#X obj 88 330 line~;
#X obj 165 294 pack 0 10;
#X obj 163 331 line~;
#X obj 124 427 *~;
#X obj 89 392 wavetable~;
#X obj 268 49 r p4;
#X obj 269 260 r p3;
#X obj 251 298 r p2;
#X obj 135 524 outlet~;
#X obj 343 40 r p1;
#X obj 370 141 -, f 4;
#X obj 329 309 clip 0 1;
#X obj 132 481 *~;
#X obj 432 62 inlet;
#X obj 331 99 loadbang;
#X obj 420 169 r p8;
#X obj 86 241 *;
#X obj 400 202 expr pow(2 \, $f1/12);
#X obj 102 145 expr (log($f1)*($f2/25));
#X connect 0 0 1 0;
#X connect 1 0 19 0;
#X connect 1 0 21 0;
#X connect 1 1 4 0;
#X connect 2 0 3 0;
#X connect 3 0 7 0;
#X connect 4 0 5 0;
#X connect 5 0 6 1;
#X connect 6 0 15 0;
#X connect 7 0 6 0;
#X connect 8 0 21 1;
#X connect 9 0 4 1;
#X connect 10 0 7 1;
#X connect 12 0 13 0;
#X connect 13 0 14 0;
#X connect 14 0 15 1;
#X connect 15 0 11 0;
#X connect 16 0 13 1;
#X connect 17 0 13 0;
#X connect 18 0 20 0;
#X connect 19 0 2 0;
#X connect 20 0 19 1;
#X connect 21 0 2 1;
