#N canvas 10 301 1136 562 12;
#X obj 57 194 osc~;
#X obj 388 141 phasor~;
#X obj 325 433 outlet~;
#X obj 387 168 -~ 0.5;
#X obj 389 197 *~ 2;
#X obj 205 151 phasor~;
#X obj 205 209 -~ 0.5;
#X obj 203 240 *~ 2;
#X obj 524 182 abs;
#X obj 522 212 * -1;
#X obj 522 242 + 1;
#X obj 531 117 / 128;
#X obj 626 197 abs;
#X obj 624 227 * -1;
#X obj 624 257 + 1;
#X obj 732 202 abs;
#X obj 730 232 * -1;
#X obj 730 262 + 1;
#X obj 629 164 - 1;
#X obj 733 170 - 2;
#X obj 202 342 *~;
#X obj 318 345 *~;
#X obj 431 346 *~;
#X obj 137 76 inlet~ freq;
#X obj 527 273 max 0;
#X obj 629 288 max 0;
#X obj 736 292 max 0;
#X obj 533 70 inlet shape;
#X obj 470 65 loadbang;
#X obj 206 180 expr~ $v1 > 0.5;
#X connect 0 0 20 0;
#X connect 1 0 3 0;
#X connect 3 0 4 0;
#X connect 4 0 22 0;
#X connect 5 0 29 0;
#X connect 6 0 7 0;
#X connect 7 0 21 0;
#X connect 8 0 9 0;
#X connect 9 0 10 0;
#X connect 10 0 24 0;
#X connect 11 0 8 0;
#X connect 11 0 18 0;
#X connect 11 0 19 0;
#X connect 12 0 13 0;
#X connect 13 0 14 0;
#X connect 14 0 25 0;
#X connect 15 0 16 0;
#X connect 16 0 17 0;
#X connect 17 0 26 0;
#X connect 18 0 12 0;
#X connect 19 0 15 0;
#X connect 20 0 2 0;
#X connect 21 0 2 0;
#X connect 22 0 2 0;
#X connect 23 0 0 0;
#X connect 23 0 1 0;
#X connect 23 0 5 0;
#X connect 24 0 20 1;
#X connect 25 0 21 1;
#X connect 26 0 22 1;
#X connect 27 0 11 0;
#X connect 28 0 11 0;
#X connect 29 0 6 0;
